<svg width="40" height="40" viewBox="0 0 40 40" fill="none" xmlns="http://www.w3.org/2000/svg">
<path d="M18.2895 3.33334V8.33334M8.37715 3.33334V8.33334M8.37715 5.83334H3.33331C3.33331 5.83334 3.33331 13.3333 3.33331 17.5C3.33331 21.6667 6.66665 26.6667 13.3333 26.6667C20 26.6667 23.3333 21.6667 23.3333 17.5C23.3333 13.3333 23.3333 5.83334 23.3333 5.83334H18.2895H8.37715Z" stroke="#777777" stroke-width="2"/>
<path d="M33.3333 19.1667C35.1742 19.1667 36.6667 17.6742 36.6667 15.8333C36.6667 13.9924 35.1742 12.5 33.3333 12.5C31.4924 12.5 30 13.9924 30 15.8333C30 17.6742 31.4924 19.1667 33.3333 19.1667Z" stroke="#777777" stroke-width="2"/>
<path d="M13.3333 26.6667C13.3333 32.1895 17.8105 36.6667 23.3333 36.6667C28.8561 36.6667 33.3333 32.1895 33.3333 26.6667V19.1667" stroke="#777777" stroke-width="2"/>
</svg>
